<?xml version="1.0" standalone="no"?><!DOCTYPE svg PUBLIC "-//W3C//DTD SVG 1.1//EN" "http://www.w3.org/Graphics/SVG/1.1/DTD/svg11.dtd"><svg t="1595403677393" class="icon" viewBox="0 0 1335 1024" version="1.1" xmlns="http://www.w3.org/2000/svg" p-id="14671" xmlns:xlink="http://www.w3.org/1999/xlink" width="41.71875" height="32"><defs><style type="text/css"></style></defs><path d="M475.937391 183.429565V113.085217a37.398261 37.398261 0 0 1 37.398261-37.39826H1090.782609a37.398261 37.398261 0 0 1 37.175652 37.39826v686.525218A37.398261 37.398261 0 0 1 1090.782609 837.008696h-70.566957" fill="#F4F4F4" p-id="14672"></path><path d="M272.250435 461.467826h-33.391305v-33.391304h-22.260869v33.391304H183.429565v22.26087h33.168696v33.168695h22.260869v-33.168695h33.391305v-22.26087zM331.909565 26.713043h-22.038261v-22.260869h-22.260869v22.260869h-22.26087v22.038261h22.26087v22.26087h22.260869v-22.26087h22.038261V26.713043zM1289.126957 503.095652h-33.391305v-33.391304h-22.260869v33.391304h-33.168696v22.26087h33.168696v33.391304h22.260869v-33.391304h33.391305v-22.26087z" fill="#D7D8D8" p-id="14673"></path><path d="M1258.629565 832.333913h-119.986087a48.528696 48.528696 0 0 0 8.013913-26.935652V103.735652a49.196522 49.196522 0 0 0-49.196521-49.196522H506.88a49.196522 49.196522 0 0 0-49.196522 49.196522v71.902609h22.26087V103.735652a26.935652 26.935652 0 0 1 26.935652-26.935652H1097.46087a26.935652 26.935652 0 0 1 26.935652 26.935652v701.662609a26.935652 26.935652 0 0 1-26.935652 26.935652h-83.255653a11.130435 11.130435 0 0 0-10.907826 11.130435 10.907826 10.907826 0 0 0 10.907826 11.130435h244.869566a11.130435 11.130435 0 0 0 11.130434-11.130435 11.130435 11.130435 0 0 0-11.575652-11.130435z" fill="#D7D8D8" p-id="14674"></path><path d="M1291.130435 263.568696m-22.26087 0a22.26087 22.26087 0 1 0 44.521739 0 22.26087 22.26087 0 1 0-44.521739 0Z" fill="#FFFFFF" p-id="14675"></path><path d="M1291.130435 307.867826a44.521739 44.521739 0 1 1 44.521739-44.521739 44.521739 44.521739 0 0 1-44.521739 44.521739z m0-66.782609a22.26087 22.26087 0 1 0 22.260869 22.26087 22.26087 22.26087 0 0 0-22.260869-22.038261z" fill="#D7D8D8" p-id="14676"></path><path d="M145.586087 194.782609m-33.391304 0a33.391304 33.391304 0 1 0 66.782608 0 33.391304 33.391304 0 1 0-66.782608 0Z" fill="#FFFFFF" p-id="14677"></path><path d="M145.586087 250.434783A55.652174 55.652174 0 1 1 200.347826 194.782609a55.652174 55.652174 0 0 1-54.761739 55.652174z m0-89.043479A33.391304 33.391304 0 1 0 178.086957 194.782609a33.391304 33.391304 0 0 0-32.50087-33.391305z" fill="#D7D8D8" p-id="14678"></path><path d="M390.90087 201.683478m26.490434 0l555.631305 0q26.490435 0 26.490434 26.490435l0 686.08q0 26.490435-26.490434 26.490435l-555.631305 0q-26.490435 0-26.490434-26.490435l0-686.08q0-26.490435 26.490434-26.490435Z" fill="#F9F9F9" p-id="14679"></path><path d="M178.086957 936.069565H11.130435a11.130435 11.130435 0 0 0-11.130435 11.130435 11.130435 11.130435 0 0 0 11.130435 11.130435H178.086957a11.130435 11.130435 0 0 0 11.130434-11.130435 11.353043 11.353043 0 0 0-11.130434-11.130435zM979.478261 179.422609H411.158261a38.066087 38.066087 0 0 0-38.066087 38.288695V919.373913a35.617391 35.617391 0 0 0 4.006956 16.695652h-79.916521a11.353043 11.353043 0 0 0-11.130435 11.130435 11.130435 11.130435 0 0 0 11.130435 11.130435h639.109565a10.017391 10.017391 0 0 0 4.452174 0H979.478261a38.288696 38.288696 0 0 0 38.066087-38.066087V217.711304A38.288696 38.288696 0 0 0 979.478261 179.422609z m15.805217 739.951304a15.805217 15.805217 0 0 1-15.805217 15.582609H411.158261a15.805217 15.805217 0 0 1-16.027826-15.805218V217.711304a16.027826 16.027826 0 0 1 16.027826-16.027826H979.478261a15.805217 15.805217 0 0 1 15.805217 16.027826z" fill="#D7D8D8" p-id="14680"></path><path d="M756.869565 319.666087H489.73913a11.130435 11.130435 0 0 1-11.130434-11.130435 11.130435 11.130435 0 0 1 11.130434-11.130435h267.130435a11.353043 11.353043 0 0 1 11.130435 11.130435 11.130435 11.130435 0 0 1-11.130435 11.130435zM712.347826 493.30087H489.73913a11.130435 11.130435 0 0 1-11.130434-11.130435 11.130435 11.130435 0 0 1 11.130434-11.130435h222.608696a11.130435 11.130435 0 0 1 11.130435 11.130435 11.130435 11.130435 0 0 1-11.130435 11.130435zM823.652174 406.483478H489.73913a11.130435 11.130435 0 0 1-11.130434-11.130435 11.130435 11.130435 0 0 1 11.130434-11.130434h333.913044a11.130435 11.130435 0 0 1 11.130435 11.130434 11.130435 11.130435 0 0 1-11.130435 11.130435z" fill="#D7D8D8" p-id="14681"></path><path d="M630.650435 726.817391m-121.989565 0a121.989565 121.989565 0 1 0 243.97913 0 121.989565 121.989565 0 1 0-243.97913 0Z" fill="#FFFFFF" p-id="14682"></path><path d="M573.217391 779.130435a77.913043 77.913043 0 0 1 0-109.968696" fill="#FFFFFF" p-id="14683"></path><path d="M573.217391 790.928696a11.575652 11.575652 0 0 1-7.791304-3.116522 89.043478 89.043478 0 0 1 0-125.773913 10.685217 10.685217 0 0 1 15.582609 0 11.130435 11.130435 0 0 1 0 15.805217 66.782609 66.782609 0 0 0 0 94.163479 11.130435 11.130435 0 0 1-7.791305 18.921739z" fill="#D7D8D8" p-id="14684"></path><path d="M900.006957 981.704348l-140.911305-140.688696a22.26087 22.26087 0 0 0-18.921739-6.010435l-5.565217-7.123478a146.69913 146.69913 0 1 0-16.695653 14.469565l5.787827 6.455653a22.26087 22.26087 0 0 0 4.897391 23.596521L868.173913 1013.092174a22.26087 22.26087 0 0 0 15.805217 6.455652 22.26087 22.26087 0 0 0 15.805218-37.843478zM508.438261 726.817391a122.212174 122.212174 0 1 1 122.212174 122.212174 122.434783 122.434783 0 0 1-122.212174-122.212174z" fill="#D7D8D8" p-id="14685"></path></svg>